<svg width="24" height="24" fill="currentColor" viewBox="0 0 24 24" transform="" id="injected-svg"><!--Boxicons v3.0 https://boxicons.com | License  https://docs.boxicons.com/free--><path d="m12,22c3.86,0,7-3.14,7-7s-3.14-7-7-7-7,3.14-7,7,3.14,7,7,7Zm-1.08-8.37l1.08-2.19,1.08,2.19,2.42.35-1.75,1.71.41,2.41-2.16-1.14-2.16,1.14.41-2.41-1.75-1.71,2.42-.35Z"></path><path d="m11,2h-4c-.55,0-1,.45-1,1v6.73c1.26-1.43,3.02-2.41,5-2.66V2Z"></path><path d="m18,9.73V3c0-.55-.45-1-1-1h-4v5.07c1.98.25,3.74,1.23,5,2.66Z"></path></svg>